<mxfile host="65bd71144e" modified="2020-10-26T19:30:01.350Z" agent="5.0 (Windows NT 10.0; Win64; x64) AppleWebKit/537.36 (KHTML, like Gecko) Code/1.50.1 Chrome/83.0.4103.122 Electron/9.2.1 Safari/537.36" etag="DfKakqUF02VbF5IEZcAo" version="13.6.5">
    <diagram id="C5RBs43oDa-KdzZeNtuy" name="Page-1">
        <mxGraphModel dx="2552" dy="896" grid="1" gridSize="10" guides="1" tooltips="1" connect="1" arrows="1" fold="1" page="1" pageScale="1" pageWidth="827" pageHeight="1169" math="0" shadow="0">
            <root>
                <mxCell id="WIyWlLk6GJQsqaUBKTNV-0"/>
                <mxCell id="WIyWlLk6GJQsqaUBKTNV-1" parent="WIyWlLk6GJQsqaUBKTNV-0"/>
                <mxCell id="QhX1ILNTXc3fEX-ZEJUa-0" value="Start&lt;br&gt;main method&lt;br&gt;&lt;br&gt;&lt;br&gt;" style="triangle;whiteSpace=wrap;html=1;rotation=90;direction=east;" vertex="1" parent="WIyWlLk6GJQsqaUBKTNV-1">
                    <mxGeometry x="-47.5" width="86" height="117" as="geometry"/>
                </mxCell>
                <mxCell id="QhX1ILNTXc3fEX-ZEJUa-6" style="edgeStyle=orthogonalEdgeStyle;rounded=0;orthogonalLoop=1;jettySize=auto;html=1;entryX=1;entryY=0.5;entryDx=0;entryDy=0;" edge="1" parent="WIyWlLk6GJQsqaUBKTNV-1" source="QhX1ILNTXc3fEX-ZEJUa-5" target="QhX1ILNTXc3fEX-ZEJUa-0">
                    <mxGeometry relative="1" as="geometry"/>
                </mxCell>
                <mxCell id="QhX1ILNTXc3fEX-ZEJUa-16" style="edgeStyle=orthogonalEdgeStyle;rounded=0;orthogonalLoop=1;jettySize=auto;html=1;entryX=0.5;entryY=0;entryDx=0;entryDy=0;" edge="1" parent="WIyWlLk6GJQsqaUBKTNV-1" source="QhX1ILNTXc3fEX-ZEJUa-5" target="QhX1ILNTXc3fEX-ZEJUa-7">
                    <mxGeometry relative="1" as="geometry"/>
                </mxCell>
                <mxCell id="6" style="edgeStyle=orthogonalEdgeStyle;rounded=0;orthogonalLoop=1;jettySize=auto;html=1;entryX=0.5;entryY=0;entryDx=0;entryDy=0;" edge="1" parent="WIyWlLk6GJQsqaUBKTNV-1" source="QhX1ILNTXc3fEX-ZEJUa-5" target="8">
                    <mxGeometry relative="1" as="geometry">
                        <mxPoint x="220" y="360" as="targetPoint"/>
                    </mxGeometry>
                </mxCell>
                <mxCell id="QhX1ILNTXc3fEX-ZEJUa-5" value="boolean two = true;&lt;br&gt;int num = 0;" style="rounded=0;whiteSpace=wrap;html=1;" vertex="1" parent="WIyWlLk6GJQsqaUBKTNV-1">
                    <mxGeometry x="-64.5" y="220" width="120" height="60" as="geometry"/>
                </mxCell>
                <mxCell id="QhX1ILNTXc3fEX-ZEJUa-12" style="edgeStyle=orthogonalEdgeStyle;rounded=0;orthogonalLoop=1;jettySize=auto;html=1;entryX=0.5;entryY=0;entryDx=0;entryDy=0;" edge="1" parent="WIyWlLk6GJQsqaUBKTNV-1" source="QhX1ILNTXc3fEX-ZEJUa-7" target="QhX1ILNTXc3fEX-ZEJUa-9">
                    <mxGeometry relative="1" as="geometry"/>
                </mxCell>
                <mxCell id="QhX1ILNTXc3fEX-ZEJUa-13" style="edgeStyle=orthogonalEdgeStyle;rounded=0;orthogonalLoop=1;jettySize=auto;html=1;entryX=0.5;entryY=0;entryDx=0;entryDy=0;" edge="1" parent="WIyWlLk6GJQsqaUBKTNV-1" source="QhX1ILNTXc3fEX-ZEJUa-7" target="QhX1ILNTXc3fEX-ZEJUa-8">
                    <mxGeometry relative="1" as="geometry"/>
                </mxCell>
                <mxCell id="QhX1ILNTXc3fEX-ZEJUa-7" value="if num is a multiple of&amp;nbsp;&lt;br&gt;5 or 7" style="shape=hexagon;perimeter=hexagonPerimeter2;whiteSpace=wrap;html=1;fixedSize=1;" vertex="1" parent="WIyWlLk6GJQsqaUBKTNV-1">
                    <mxGeometry x="-290" y="280" width="120" height="80" as="geometry"/>
                </mxCell>
                <mxCell id="QhX1ILNTXc3fEX-ZEJUa-8" value="Return false;" style="rounded=1;whiteSpace=wrap;html=1;" vertex="1" parent="WIyWlLk6GJQsqaUBKTNV-1">
                    <mxGeometry x="-150" y="440" width="120" height="60" as="geometry"/>
                </mxCell>
                <mxCell id="QhX1ILNTXc3fEX-ZEJUa-9" value="Return true" style="rounded=1;whiteSpace=wrap;html=1;" vertex="1" parent="WIyWlLk6GJQsqaUBKTNV-1">
                    <mxGeometry x="-430" y="440" width="120" height="60" as="geometry"/>
                </mxCell>
                <mxCell id="QhX1ILNTXc3fEX-ZEJUa-14" value="True" style="text;html=1;align=center;verticalAlign=middle;resizable=0;points=[];autosize=1;" vertex="1" parent="WIyWlLk6GJQsqaUBKTNV-1">
                    <mxGeometry x="120" y="230" width="40" height="20" as="geometry"/>
                </mxCell>
                <mxCell id="QhX1ILNTXc3fEX-ZEJUa-15" value="False" style="text;html=1;align=center;verticalAlign=middle;resizable=0;points=[];autosize=1;" vertex="1" parent="WIyWlLk6GJQsqaUBKTNV-1">
                    <mxGeometry x="-160" y="320" width="40" height="20" as="geometry"/>
                </mxCell>
                <mxCell id="0" style="edgeStyle=orthogonalEdgeStyle;rounded=0;orthogonalLoop=1;jettySize=auto;html=1;exitX=0.5;exitY=0;exitDx=0;exitDy=0;entryX=0.642;entryY=-0.05;entryDx=0;entryDy=0;entryPerimeter=0;" edge="1" parent="WIyWlLk6GJQsqaUBKTNV-1" source="QhX1ILNTXc3fEX-ZEJUa-9" target="QhX1ILNTXc3fEX-ZEJUa-9">
                    <mxGeometry relative="1" as="geometry"/>
                </mxCell>
                <mxCell id="1" value="False" style="text;html=1;strokeColor=none;fillColor=none;align=center;verticalAlign=middle;whiteSpace=wrap;rounded=0;" vertex="1" parent="WIyWlLk6GJQsqaUBKTNV-1">
                    <mxGeometry x="-160" y="220" width="40" height="20" as="geometry"/>
                </mxCell>
                <mxCell id="9" style="edgeStyle=orthogonalEdgeStyle;rounded=0;orthogonalLoop=1;jettySize=auto;html=1;entryX=0.5;entryY=0;entryDx=0;entryDy=0;" edge="1" parent="WIyWlLk6GJQsqaUBKTNV-1" source="8" target="11">
                    <mxGeometry relative="1" as="geometry">
                        <mxPoint x="80" y="460" as="targetPoint"/>
                    </mxGeometry>
                </mxCell>
                <mxCell id="10" style="edgeStyle=orthogonalEdgeStyle;rounded=0;orthogonalLoop=1;jettySize=auto;html=1;entryX=0.5;entryY=0;entryDx=0;entryDy=0;" edge="1" parent="WIyWlLk6GJQsqaUBKTNV-1" source="8" target="12">
                    <mxGeometry relative="1" as="geometry">
                        <mxPoint x="380" y="460" as="targetPoint"/>
                    </mxGeometry>
                </mxCell>
                <mxCell id="8" value="if: num is a multiple of 5 or 7 or 2" style="shape=hexagon;perimeter=hexagonPerimeter2;whiteSpace=wrap;html=1;fixedSize=1;" vertex="1" parent="WIyWlLk6GJQsqaUBKTNV-1">
                    <mxGeometry x="170" y="280" width="120" height="80" as="geometry"/>
                </mxCell>
                <mxCell id="11" value="return false" style="rounded=1;whiteSpace=wrap;html=1;" vertex="1" parent="WIyWlLk6GJQsqaUBKTNV-1">
                    <mxGeometry x="30" y="440" width="120" height="60" as="geometry"/>
                </mxCell>
                <mxCell id="12" value="return true" style="rounded=1;whiteSpace=wrap;html=1;" vertex="1" parent="WIyWlLk6GJQsqaUBKTNV-1">
                    <mxGeometry x="320" y="440" width="120" height="60" as="geometry"/>
                </mxCell>
            </root>
        </mxGraphModel>
    </diagram>
</mxfile>